<svg width="64" height="65" viewBox="0 0 64 65" fill="none" xmlns="http://www.w3.org/2000/svg">
<path d="M32 61.0003C19.8667 61.0003 10 51.1337 10 39.0003V25.667C10 13.5337 19.8667 3.66699 32 3.66699C44.1333 3.66699 54 13.5337 54 25.667V39.0003C54 51.1337 44.1333 61.0003 32 61.0003ZM32 7.66699C22.08 7.66699 14 15.747 14 25.667V39.0003C14 48.9203 22.08 57.0003 32 57.0003C41.92 57.0003 50 48.9203 50 39.0003V25.667C50 15.747 41.92 7.66699 32 7.66699Z" fill="#101010"/>
<path d="M32 31.6668C28.6933 31.6668 26 28.9735 26 25.6668V20.3335C26 17.0268 28.6933 14.3335 32 14.3335C35.3067 14.3335 38 17.0268 38 20.3335V25.6668C38 28.9735 35.3067 31.6668 32 31.6668ZM32 18.3335C30.9067 18.3335 30 19.2402 30 20.3335V25.6668C30 26.7602 30.9067 27.6668 32 27.6668C33.0933 27.6668 34 26.7602 34 25.6668V20.3335C34 19.2402 33.0933 18.3335 32 18.3335Z" fill="#101010"/>
<path d="M32 18.3337C30.9067 18.3337 30 17.427 30 16.3337V5.66699C30 4.57366 30.9067 3.66699 32 3.66699C33.0933 3.66699 34 4.57366 34 5.66699V16.3337C34 17.427 33.0933 18.3337 32 18.3337Z" fill="#101010"/>
</svg>
